<?xml version="1.0" encoding="UTF-8"?>
<svg width="400" height="400" viewBox="0 0 400 400" fill="none" xmlns="http://www.w3.org/2000/svg">
  <!-- Center circle -->
  <circle cx="200" cy="200" r="40" stroke="#977c5f" stroke-width="2" fill="none"/>
  
  <!-- Inner rays -->
  <g stroke="#977c5f" stroke-width="1.5">
    <path d="M200 140 L200 80" stroke-linecap="round"/>
    <path d="M200 260 L200 320" stroke-linecap="round"/>
    <path d="M140 200 L80 200" stroke-linecap="round"/>
    <path d="M260 200 L320 200" stroke-linecap="round"/>
    <path d="M157 157 L114 114" stroke-linecap="round"/>
    <path d="M243 157 L286 114" stroke-linecap="round"/>
    <path d="M157 243 L114 286" stroke-linecap="round"/>
    <path d="M243 243 L286 286" stroke-linecap="round"/>
  </g>

  <!-- Outer decorative circles -->
  <g stroke="#977c5f" stroke-width="1">
    <circle cx="200" cy="200" r="60" stroke-dasharray="4 8"/>
    <circle cx="200" cy="200" r="80" stroke-dasharray="8 12"/>
    <circle cx="200" cy="200" r="100" stroke-dasharray="12 16"/>
  </g>

  <!-- Outer dots -->
  <g fill="#977c5f">
    <circle cx="200" cy="60" r="3"/>
    <circle cx="200" cy="340" r="3"/>
    <circle cx="60" cy="200" r="3"/>
    <circle cx="340" cy="200" r="3"/>
    <circle cx="100" cy="100" r="3"/>
    <circle cx="300" cy="100" r="3"/>
    <circle cx="100" cy="300" r="3"/>
    <circle cx="300" cy="300" r="3"/>
  </g>
</svg>
